<svg width="1280" height="820" viewBox="0 0 1280 820" fill="none" xmlns="http://www.w3.org/2000/svg">
<g clip-path="url(#clip0_86_49)">
<path d="M-3.05176e-05 411V822H640H1280V411V-0.00012207H640H-3.05176e-05V411ZM108.371 152.07C109.597 154.125 108.78 156.18 106.735 156.18C104.281 156.18 102.236 154.125 102.236 152.07C102.236 149.604 103.054 147.96 103.872 147.96C105.099 147.96 107.144 149.604 108.371 152.07ZM601.15 153.714C601.15 154.536 598.288 156.591 594.607 157.824C591.335 159.057 589.7 158.646 590.926 156.18C593.38 152.07 601.15 150.426 601.15 153.714ZM663.719 159.057C658.402 159.879 649.406 159.879 643.272 159.057C636.728 158.235 641.227 157.413 652.268 157.413C663.719 157.413 668.626 158.235 663.719 159.057ZM278.083 176.73C278.083 178.785 273.994 180.84 269.086 180.84C261.316 180.84 260.907 180.018 265.815 176.73C273.585 171.387 278.083 171.387 278.083 176.73ZM318.16 179.607C312.026 180.429 300.984 180.429 293.623 179.607C286.262 178.785 291.169 177.963 304.664 177.963C318.16 177.963 324.294 178.785 318.16 179.607ZM768.818 201.39C768.818 203.445 766.773 205.5 764.319 205.5C762.275 205.5 761.457 203.445 762.684 201.39C763.91 198.924 765.955 197.28 767.182 197.28C768 197.28 768.818 198.924 768.818 201.39ZM184.026 232.215C174.211 242.49 165.214 250.71 164.396 250.71C158.262 250.71 191.795 214.131 198.339 214.131C200.383 213.72 193.84 221.94 184.026 232.215ZM381.546 241.257C369.687 242.079 349.649 242.079 336.562 241.257C323.476 240.435 333.291 240.024 357.827 240.024C382.773 240.024 393.406 240.435 381.546 241.257ZM99.3738 261.807C87.5143 262.629 67.476 262.629 54.3897 261.807C41.3035 260.985 51.1182 260.574 75.6549 260.574C100.601 260.574 111.233 260.985 99.3738 261.807ZM512.409 290.577C509.546 291.399 504.639 291.399 502.185 290.577C499.323 289.344 501.367 288.522 507.093 288.522C512.818 288.522 514.863 289.344 512.409 290.577ZM550.032 332.91C551.259 334.965 557.393 337.02 563.527 337.431C574.569 337.842 574.569 337.842 562.3 340.719C555.757 341.952 510.364 342.363 462.109 340.719L374.185 338.664L454.748 337.842C503.003 337.431 536.128 335.376 537.764 332.91C538.99 330.444 541.853 328.8 543.898 328.8C545.942 328.8 548.805 330.444 550.032 332.91ZM453.93 427.44C453.93 429.495 453.112 431.55 452.294 431.55C451.067 431.55 449.022 429.495 447.796 427.44C446.569 424.974 447.387 423.33 449.431 423.33C451.885 423.33 453.93 424.974 453.93 427.44ZM205.7 460.32C200.383 466.485 193.84 468.54 179.936 468.129L161.534 467.307L179.118 464.841C188.524 463.197 198.748 459.498 201.201 457.032C209.38 448.812 213.061 451.689 205.7 460.32ZM141.086 466.074C148.038 466.485 124.728 467.307 89.968 467.307C55.2076 467.307 31.8977 466.485 38.4409 464.841C49.4824 462.375 114.096 463.197 141.086 466.074ZM136.997 530.19C138.224 532.245 137.406 534.3 135.361 534.3C132.907 534.3 130.863 532.245 130.863 530.19C130.863 527.724 131.68 526.08 132.498 526.08C133.725 526.08 135.77 527.724 136.997 530.19ZM203.655 528.957C199.565 529.779 192.204 529.779 187.297 528.957C181.981 528.135 185.252 527.313 194.249 527.313C203.246 526.902 207.335 527.724 203.655 528.957ZM618.735 541.287C595.834 542.109 556.984 542.109 532.856 541.287C508.728 540.876 527.54 540.054 574.569 540.054C622.006 540.054 641.636 540.876 618.735 541.287ZM113.278 602.526C110.415 605.403 44.1661 604.992 41.3035 602.115C40.4856 600.882 56.8434 600.06 77.6996 600.06C98.5559 600.06 114.505 601.293 113.278 602.526ZM271.949 642.393C278.492 644.037 278.083 644.448 269.495 644.859C262.134 645.27 256.409 641.571 249.457 631.707L240.051 618.555L251.911 629.652C258.454 635.406 267.45 641.16 271.949 642.393ZM592.153 627.597C583.565 628.419 568.843 628.419 559.438 627.597C549.623 626.775 556.575 625.953 574.569 625.953C592.562 625.953 600.332 626.775 592.153 627.597ZM83.0159 635.817C80.1533 636.639 74.4281 636.639 70.7476 635.817C66.6581 634.584 69.1118 633.762 75.6549 633.762C82.607 633.762 85.4696 634.584 83.0159 635.817ZM192.204 682.671C192.204 685.137 190.569 685.548 188.115 684.315C186.07 683.082 184.026 679.794 184.026 677.739C184.026 675.273 186.07 674.862 188.115 676.095C190.569 677.328 192.204 680.616 192.204 682.671ZM348.831 685.137C330.019 685.959 299.757 685.959 281.355 685.137C262.543 684.726 277.674 683.904 314.888 683.904C352.102 683.904 367.233 684.726 348.831 685.137ZM114.505 708.564C114.505 713.085 106.735 714.729 104.281 711.03C103.054 708.975 104.69 706.92 107.962 706.92C111.642 706.92 114.505 707.742 114.505 708.564ZM439.208 740.211C437.981 742.266 435.118 743.088 433.073 741.444C431.029 740.211 430.211 737.334 431.847 735.279C433.073 733.224 435.936 732.402 437.981 734.046C440.026 735.279 440.843 738.156 439.208 740.211Z" fill="black"/>
</g>
<defs>
<clipPath id="clip0_86_49">
<rect width="1280" height="822" fill="white"/>
</clipPath>
</defs>
</svg>
